<?xml version="1.0" encoding="utf-8"?>
<!-- Generator: Adobe Illustrator 27.5.0, SVG Export Plug-In . SVG Version: 6.00 Build 0)  -->
<svg version="1.1" xmlns="http://www.w3.org/2000/svg" xmlns:xlink="http://www.w3.org/1999/xlink" x="0px" y="0px"
	 viewBox="0 0 500 500" style="enable-background:new 0 0 500 500;" xml:space="preserve">
<g id="Background">
	<rect style="fill:transparent;" width="800" height="800"/>
	<circle style="fill:transparent;" cx="237.994" cy="250" r="161.371"/>
</g>
<g id="Logo">
	<g id="Logo_1_">
		<g id="Fill">
			<g>
				<path style="fill:#FFFFFF;" d="M165.003,248.44c-1.759-1.209-3.336-2.674-4.707-4.308c-1.38-1.645-2.553-3.462-3.509-5.383
					c-0.23-0.462-0.447-0.929-0.652-1.403c-0.214-0.494-0.241-1.014-0.224-1.55c0.031-0.986,0.071-1.985-0.152-2.946
					c-0.076-0.328-0.126-0.608-0.15-0.944c-0.025-0.346-0.054-0.692-0.098-1.036c-0.119-0.918-0.347-1.817-0.487-2.731
					c-0.012-0.077-0.029-0.149-0.007-0.225c0.023-0.08,0.042-0.158,0.057-0.241c0.037-0.196,0.073-0.392,0.11-0.587
					c0.018-0.097,0.036-0.194,0.042-0.292c0.012-0.218-0.049-0.446-0.002-0.661c0.045-0.206,0.116-0.414,0.178-0.616
					c0.13-0.424,0.278-0.843,0.448-1.253c0.116-0.279,0.243-0.553,0.381-0.821c0.502-0.975,1.162-1.754,1.914-2.54
					c1.624-1.697,3.954-2.232,6.194-2.549c-1.169-2.768-2.663-5.618-5.277-7.274c-1.624-1.072-3.921-0.877-5.196,0.633
					c-3.158,3.385-3.799,8.313-3.702,12.762c0.052,0.98,0.126,1.959,0.256,2.932c0.126,0.94,0.318,1.855,0.388,2.802
					c0.005,0.074,0.01,0.148-0.004,0.221c-0.017,0.091-0.063,0.173-0.108,0.254c-0.052,0.094-0.105,0.189-0.182,0.263
					c-0.077,0.075-0.182,0.128-0.288,0.117c-0.221-0.022-0.338-0.093-0.43-0.279c-0.095-0.192-0.187-0.386-0.276-0.581
					c-0.177-0.39-0.342-0.785-0.494-1.185c-0.304-0.8-0.558-1.618-0.763-2.449c-0.543-2.195-0.746-4.47-0.651-6.728
					c0.094-2.223,0.439-4.511,1.146-6.627c1.072-3.207,3.264-6.284,6.503-7.542c2.33-0.836,4.644,0.414,6.584,1.607
					c0.511,0.365,1.039,0.706,1.591,1.031c2.135,1.875,3.661,4.311,5.423,6.478c-1.337-5.563-2.239-10.698-2.738-13.838
					c-2.792-2.342-5.928-4.3-9.399-5.411c-4.847-0.901-9.855,1.591-12.689,5.504c-4.676,6.438-6.397,14.808-5.196,22.634
					c0.917,5.699,2.062,11.544,5.082,16.561c1.818,4.035,5.025,7.388,8.816,9.636c3.71,2.37,8.086,3.466,11.682,6.064
					C164.678,253.44,164.954,250.948,165.003,248.44z"/>
				<path style="fill:#FFFFFF;" d="M226.069,205.007c5.951-1.137,10.749-5.163,16.228-7.485c-1.932,2.525-4.311,4.733-5.707,7.639
					c9.028-4.635,18.737-8.995,29.136-8.524c6.259,0.26,11.909,4.79,13.484,10.862c1.023-5.374,0.057-12.015-4.903-15.197
					c-4.96-2.866-10.943-1.575-16.302-0.82c-7.412,1.396-14.962,1.51-22.431,2.362C230.136,194.339,225.216,199.348,226.069,205.007
					z"/>
				<path style="fill:#FFFFFF;" d="M255.267,218.324c2.896,0.129,5.781,0.507,8.612,1.132c2.411,0.532,5.34,1.028,7.37,2.511
					c0.881,0.644,1.609,1.472,2.491,2.115c0.185,0.135,2.578,1.295,2.55,0.988c-0.071-0.776-0.6-1.43-0.83-2.175
					c-0.253-0.819-0.146-1.751-0.582-2.489c-0.976-1.649-3.998-1.905-5.643-2.415c-3.333-1.034-6.741-1.847-10.201-2.319
					c-6.947-0.947-14.142-0.447-20.615,2.397c-0.024,0.601-0.073,1.818-0.097,2.419c0.028-0.697,7.449-1.697,8.269-1.803
					C249.463,218.314,252.371,218.195,255.267,218.324z"/>
				<path style="fill:#FE6D34;" d="M231.453,239.577c-0.504,1.586-0.823,3.234-0.92,4.895c-0.197,3.367,0.542,6.805,2.469,9.61
					c1.25,0.974,2.509,2.07,4.14,2.314c6.016,1.242,12.681,1.348,18.185-1.754c1.392-0.784,2.805-1.509,4.156-2.368
					c4.98-3.166,9.508-7.339,12.228-12.642c1.329-2.592,2.009-5.076,0.923-7.878c-0.875-2.257-2.744-4.315-5.267-4.567
					c-5.483-0.548-10.918-1.462-16.414-1.94c-0.14-0.012-0.291-0.021-0.408,0.056c-0.122,0.08-0.172,0.232-0.213,0.372
					c-0.146,0.49-0.291,0.981-0.437,1.471c-0.179,0.603-0.36,1.21-0.657,1.764c-0.287,0.534-0.675,1.006-1.079,1.457
					c-1.298,1.448-2.657,2.625-4.16,3.488c-3.021,1.735-6.029,1.663-9.386,1.459c-0.342-0.021-0.694-0.04-1.019,0.068
					C232.445,235.766,231.78,238.547,231.453,239.577z M243.909,254.497c3.835-0.634,7.472-2.099,10.354-4.754
					c1.337-1.231,2.446-2.484,3.472-3.994c1.009-1.484,2.01-3.033,3.474-4.114c1.348-0.995,2.972-1.499,4.593-1.838
					c0.414-0.087,1.992-0.599,2.114-0.102c0.105,0.431-0.927,1.761-1.156,2.14c-1.811,2.995-4.105,5.728-6.711,8.062
					c-0.939,0.841-1.938,1.616-2.988,2.312c-2.097,1.39-4.404,2.471-6.833,3.136c-4.064,1.112-8.478,1.036-12.434-0.413
					c-0.034-0.013-0.069-0.025-0.103-0.038C239.769,254.949,241.857,254.836,243.909,254.497z"/>
				<path style="fill:#FFFFFF;" d="M280.201,277.032c4.749,0.747,9.961,0.016,13.923-2.841c2.452-2.086,4.311-5.017,4.311-8.337
					c0.065-5.472-1.275-10.87-2.736-16.107c-0.536-2.573-1.551-5.001-2.711-7.347c-1.689-3.337-1.429-7.168-1.916-10.773
					c-3.215-1.77-7.477-2.525-10.773-0.617c-2.265,7.477-5.455,14.938-11.138,20.482c-2.102,2.233-4.667,3.941-7.217,5.614
					c-2.281,1.496-4.599,2.82-4.886,5.845c-0.12,1.263,0.01,4.118,2.011,3.279c2.768-1.16,5.859-3.265,8.914-1.781
					c3.044,1.291,3.548,4.798,4.766,7.477C274.048,274.865,277.133,276.561,280.201,277.032z"/>
				<path style="fill:#FFFFFF;" d="M223.698,250.64c0.723-3.361,0.828-6.811,1.234-10.221c-2.062,2.46-3.945,5.058-5.959,7.558
					c-2.338,2.728-4.863,5.675-8.557,6.47c-3.694,1.218-7.323-0.658-10.505-2.371c1.843,5.967,3.938,11.853,5.334,17.958
					C212.877,265.399,221.011,259.586,223.698,250.64z"/>
				<path style="fill:#FFFFFF;" d="M196.737,214.635c-0.714-0.503-1.445-0.999-2.168-1.478c-0.292,7.477,0.268,14.962,1.315,22.366
					l0.138,0.065c0.268,1.607,0.576,3.223,0.917,4.822l0.162,0.097c0.666,2.988,1.591,6.04,3.572,8.443
					c2.111,2.574,5.878,3.475,8.987,2.371c3.962-1.258,6.633-4.79,8.687-8.216c2.46-2.379,4.668-5.033,6.584-7.875
					c0.325-0.99,0.666-1.973,0.99-2.955c-3.198-1.575-5.959-3.97-9.279-5.269C210.076,222.786,203.719,218.158,196.737,214.635z"/>
				<path style="fill:#FE6D34;" d="M240.876,224.864c-2.744,1.518-5.374,3.637-6.754,6.527c2.728-0.511,5.577-0.755,8.167-1.802
					C244.554,228.452,243.629,224.182,240.876,224.864z"/>
				<path style="fill:#FFFFFF;" d="M127.302,183.704c-2.03,4.952-3.263,10.197-3.791,15.514c0.162,2.711,0.211,5.496,1.202,8.078
					c1.291,3.483,4.116,6.113,7.095,8.199c-2.476-3.54-3.653-7.696-5.301-11.625c2.971,2.054,5.602,6.332,9.758,4.985
					c0.511-3.247,0.398-6.616-1.128-9.588C132.692,194.006,130.265,188.689,127.302,183.704z"/>
				<path style="fill:#FFFFFF;" d="M235.169,305.008c7.85-0.438,15.831-1.112,23.194-4.051c5.123-1.916,10.172-5.131,12.632-10.188
					c2.395-5.309,0.674-11.495-2.638-16.001c-0.195-0.568-0.593-1.713-0.796-2.281c-3.093,2.249-6.389,4.449-10.27,5.001
					c2.167-1.599,4.635-2.882,6.227-5.131c-2.866-0.308-5.431,1.055-8.199,1.396c-4.599,0.67-8.33,0-8.33,0
					s7.294-0.871,10.767-2.869c-0.809-0.325-1.65-0.559-2.535-0.622c-7.68-0.925-15.993-0.422-22.69,3.807
					c-8.565,5.301-15.465,12.77-22.179,20.174c-4.189,4.668-9.166,8.54-14.605,11.634c-2.2,1.023-4.587,1.778-6.479,3.337
					c5.066,0.268,10.318,0.52,15.149-1.323c6.267-1.916,11.52-5.894,16.699-9.75c-2.005,3.109-4.441,5.902-6.649,8.857
					c5.878-1.924,12.121-2.297,18.014-4.189c3.913-1.072,7.217-3.572,10.302-6.097l0.032,1.112
					C240.982,300.9,238.116,303.076,235.169,305.008z"/>
				<path style="fill:#FE6D34;" d="M211.505,128.817c5.683-5.098,11.983-9.515,18.899-12.778
					c24.607-12.729,52.355-19.029,80.014-19.192c2.046,0.049,4.01,0.69,5.991,1.145c-0.406-0.958-0.869-1.892-1.388-2.793
					l0.065,0.796c-4.01-6.527-10.302-11.195-16.504-15.482c-15.344-9.961-33.967-13.817-52.079-13.338
					c-5.512,0.276-11.049,0.609-16.48,1.616c-2.744,0.43-5.033,2.143-7.079,3.913l-0.252,0.032
					c-7.168,6.6-12.462,15.279-14.808,24.761C206.723,108.139,210.539,118.336,211.505,128.817z"/>
				<path style="fill:#FE6D34;" d="M197.687,112.889c1.396-0.633,3.881-0.747,3.889-2.744c0.26-5.415-0.422-10.911,0.812-16.253
					c0.615-3.046,1.707-5.927,3.059-8.692c2.263-5.032,5.199-9.739,7.227-12.755c-6.009,2.045-11.786,4.807-17.218,8.044
					c-7.16,4.213-13.663,10.473-15.741,18.769c-2.614,6.503-1.404,13.639-1.315,20.45
					C184.82,117.427,191.014,114.447,197.687,112.889z"/>
				<path style="fill:#FFFFFF;" d="M287.199,202.79c-0.447-5.691,0.503-12.121-2.947-17.065c-3.759-4.798-10.497-4.538-15.985-4.262
					c-6.608,0.487-12.526,3.71-18.031,7.168c5.902-0.934,11.885-1.08,17.844-1.08c3.531,0.032,7.022,0.99,9.977,2.947
					c2.671,2.622,4.408,6.064,4.952,9.766c0.276,3.994-0.171,7.972-0.625,11.934C286.526,210.982,287.272,206.509,287.199,202.79z"
					/>
				<path style="fill:#FFFFFF;" d="M150.896,191.757c1.683-0.382,1.909-1.685,0.902-3.635c-4.598-8.102-11.586-14.903-20.088-18.786
					c-4.1-1.616-8.622-1.015-12.9-0.771c5.724-1.97,9.729-2.96,13.16-3.037c1.966,0.114,3.917,0.385,5.838,0.827
					c0.959,0.221,1.911,0.469,2.849,0.781c7.396,2.322,13.549,7.258,19.484,12.072c3.077,2.517,6.568,4.449,9.693,6.884
					c-6.243-2.614-12.713-4.571-19.11-6.763c2.679,4.262,5.577,8.662,9.945,11.366c2.723,1.654,5.567,3.137,8.536,4.309
					c-1.452-3.168-2.472-6.777-2.472-6.777c2.403,2.809,4.497,5.959,7.29,8.378c4.978,4.284,14.458,3.654,17.203,2.5
					c-5.585-0.99-10.676-3.661-14.645-7.704c1.193,1.215,3.951,1.784,5.553,2.12c1.952,0.408,3.963,0.518,5.95,0.365
					c2.075-0.16,4.129-0.607,6.085-1.317c0.644-0.234,4.881-1.937,4.219-2.513c-2.686-2.336-6.045-3.715-9.21-5.344
					c-2.726-1.403-6.744-3.569-7.861-6.639c1.855,1.168,3.182,2.945,5.29,3.814c3.466,1.429,7.274,1.421,10.96,1.494
					c1.867,0.057,3.726-0.065,5.594-0.219c-0.373-1.632-0.739-3.272-1.088-4.912c-1.242-14.889-1.542-30.013,1.258-44.74
					c-0.471-1.128-1.607-1.616-2.622-2.103c-12.007-5.764-25.84-7.712-38.984-5.626c-9.093,1.697-17.99,6.949-22.577,15.181
					c3.028-2.094,5.65-4.798,9.036-6.357c8.987-4.262,19.24-4.019,28.958-3.872c-8.719,0.463-17.584,1.932-25.475,5.829
					c-5.764,2.874-9.937,7.948-13.663,13.046c-3.775,5.228-10.026,7.477-15.465,10.473c-4.514,2.338-8.183,6.016-11.065,10.156
					c1.4,0.122,2.807,0.259,4.213,0.394c0.02,0,0.038,0.003,0.057,0.005c0.255,0.025,0.508,0.047,0.763,0.071l-0.034,0.032
					c3.609,0.627,6.493,2.805,6.493,2.805c2.175,1.405,4.155,3.177,5.906,5.111c4.765,5.748,8.272,12.372,11.82,18.899
					C143.266,194.343,147.016,192.727,150.896,191.757z"/>
				<path style="fill:#FFFFFF;" d="M225.444,253.002c-3.263,8.995-11.406,14.881-19.735,18.843
					c0.812,6.397,0.617,12.876-0.276,19.257c7.55-7.242,14.816-14.889,23.494-20.84c3.345-2.265,6.982-4.1,10.927-5.025
					c1.551-0.187,3.093-0.349,4.644-0.52c2.297-0.089,4.603-0.146,6.901-0.195c-0.024-0.787-0.041-1.567-0.065-2.354
					c-4.189,0.43-8.435,0.552-12.583-0.252c-2.038-0.414-3.946-1.258-5.837-2.086c-2.452,2.135-4.692,4.497-6.738,7.03l-0.049-0.065
					c-0.3,0.195-0.909,0.585-1.21,0.779c1.607-2.947,3.288-5.878,5.415-8.492C228.309,257.402,226.645,255.34,225.444,253.002z"/>
				<path style="fill:#FFFFFF;" d="M331.395,162.84c-0.999-6.698-2.793-13.606-7.347-18.818c-0.495-1.112-1.534-1.859-2.322-2.736
					c-1.478-1.737-3.418-2.996-5.358-4.132l-0.106-0.211c-5.545-3.645-12.543-4.635-18.981-3.223
					c-10.911,2.322-20.279,8.857-29.185,15.271c-4.246,2.923-7.891,7.006-12.973,8.508c-7.29,1.632-15.36,1.185-21.911-2.671
					c-8.735-5.033-16.837-11.09-25.621-16.034c-0.122,2.849-0.341,5.683-0.544,8.524c-0.057,4.108-0.308,8.216-0.317,12.324
					c-0.016,9.799,1.372,19.516,2.777,29.185c-1.794,2.33-3.564,4.676-5.277,7.071c-2.898,3.58-3.986,8.143-5.09,12.502
					c1.745,1.364,3.596,2.582,5.545,3.645l-0.024,0.122c2.622,1.388,5.244,2.785,7.769,4.359
					c5.488,3.824,11.552,6.698,17.341,10.026c1.745-3.207,2.249-6.901,3.434-10.326c-0.124,0.359-3.474-0.512-3.835-0.606
					c-1.576-0.41-3.106-0.999-4.551-1.75c-1.747-0.907-3.36-1.886-4.099-3.798c-0.515-1.332-0.621-2.785-0.466-4.197
					c0.162-1.477,0.598-2.917,1.176-4.282c0.289-0.682,0.616-1.347,0.975-1.995c0.227-0.411,0.652-1.509,1.066-1.736
					c-4.895,2.679-9.994,4.96-15.092,7.225c2.695-1.908,5.756-3.19,8.492-5.017c4.376-2.914,8.313-6.551,13.143-8.752
					c4.384-2.021,9.295-2.289,13.809-3.929c5.163-1.827,10.132-4.205,15.449-5.602c3.207-0.966,6.56-1.25,9.799-2.119
					c-5.431-0.625-10.846-1.81-16.334-1.469c-6.616,0.422-13.127,2.314-18.94,5.48c-7.615,3.994-15.522,7.461-22.837,11.999
					c-2.33,1.38-4.246,3.296-6.194,5.139c0.61-0.718,1.224-1.433,1.826-2.159c0.307-0.371,0.612-0.744,0.91-1.122
					c1.517-1.918,3.758-2.845,5.746-4.15c1.707-1.12,3.457-2.168,5.219-3.203c0.726-0.427,1.456-0.847,2.19-1.261
					c0.367-0.207,0.735-0.413,1.103-0.617c2.398-1.327,4.912-2.473,7.308-3.783c2.406-1.315,4.782-2.684,7.232-3.917
					c0.979-0.493,1.97-0.964,2.976-1.399c4.978-1.815,10.275-2.621,15.558-2.75c3.559-0.148,7.172,0.144,10.68,0.735
					c5.315,0.895,10.552,2.533,15.628,4.321c4.985,1.867,7.25,7.404,7.794,12.34c0.86,6.779,1.794,14.223-1.567,20.499
					c-1.039,1.404-2.062,2.825-3.061,4.27c-1.615,1.705-3.418,3.604-3.036,6.17c2.679,0.016,5.358,0.097,8.029,0.341
					c1.932,0.414,3.864,0.877,5.797,1.348c2.712-2.297,3.345-5.894,3.978-9.198c0.593-5.967,0.804-12.007,2.192-17.86
					c0.374-1.672,1.21-3.913,3.296-3.856c4.181-0.227,8.37-0.3,12.551-0.568c0.624-1.607,1.522-2.833,2.938-3.849
					c1.816-1.303,3.916-2.212,6.063-2.805c0.986-0.272,1.988-0.482,2.998-0.638c0.436-0.067,0.904-0.177,1.347-0.141
					c0.137,0.011,0.902,0.331,0.867,0.338c-2.417,0.555-4.733,1.533-6.827,2.86c-1.028,0.652-2.002,1.388-2.909,2.2
					c-0.238,0.213-2.008,2.257-2.179,2.214c2.322,0.585,4.651,1.169,6.973,1.786c-0.373-1.413-0.739-2.825-1.039-4.246
					c2.249,1.802,3.816,4.392,6.43,5.756c0.203-1.161,0.406-2.314,0.601-3.466c2.395,1.932,5.155,3.328,8.183,3.945
					c-2.224-2.809-5.171-5.228-6.219-8.784C331.468,181.326,332.759,171.909,331.395,162.84z M244.732,170.932
					c-0.236,0.344-0.816,0.371-1.191,0.482c-0.458,0.136-0.913,0.284-1.365,0.443c-0.883,0.31-1.752,0.659-2.61,1.031
					c-1.703,0.738-3.365,1.566-5.036,2.372c-0.068,0.033-0.137,0.066-0.205,0.099c-4.335,2.005-8.175,4.928-12.583,6.787
					c0.588-0.248,1.166-0.792,1.693-1.155c0.563-0.387,1.125-0.776,1.688-1.165c1.125-0.777,2.25-1.553,3.387-2.313
					c3.129-2.091,6.349-3.958,9.753-5.557c0.142-0.067,0.284-0.133,0.427-0.199c1.459-0.673,2.978-1.487,4.565-1.795
					c0.216-0.042,0.437-0.075,0.656-0.047c0.273,0.034,0.533,0.165,0.722,0.364c0.119,0.125,0.214,0.293,0.184,0.463
					C244.804,170.811,244.772,170.874,244.732,170.932z M285.348,162.724c4.575,1.316,9.271,2.12,14.017,2.467
					c5.691,0.416,11.415,0.212,17.086-0.374c3.879-0.401,7.738-0.981,11.575-1.676c-0.016,1.534-1.81,1.859-2.955,2.249
					c-6.917,1.835-14.134,1.956-21.237,2.354c-1.381,0.077-2.818-0.067-4.198-0.13c-1.432-0.065-2.863-0.155-4.291-0.281
					c-2.851-0.252-5.693-0.646-8.486-1.273c-1.004-0.225-2.001-0.481-2.989-0.77c-0.956-0.28-2.062-0.378-1.954-1.64
					C282.058,161.982,284.298,162.422,285.348,162.724z M281.048,174.51c-1.697-0.358-3.379-0.784-5.076-1.146
					c-0.946-0.202-2.054-0.431-2.405-1.471c-0.121-0.357-0.209-0.759-0.052-1.102c0.17-0.371,0.587-0.571,0.992-0.629
					c1.17-0.167,2.372,0.251,3.495,0.523c1.232,0.298,2.464,0.598,3.696,0.894c2.494,0.599,4.992,1.18,7.507,1.686
					c12.738,2.565,26.019,2.452,38.651-0.649c-0.576,1.624-2.232,2.151-3.751,2.444c-5.666,1.159-11.438,1.783-17.219,1.92
					c-5.778,0.137-11.564-0.212-17.291-0.988C286.729,175.601,283.878,175.106,281.048,174.51z M325.091,183.85
					c-5.291,1.36-10.704,2.423-16.137,3.014c-1.645,0.179-3.295,0.305-4.949,0.365c-2.233,0.08-4.472,0.04-6.699-0.157
					c-2.003-0.176-4.182-0.303-6.087-0.984c-0.601-0.215-1.165-0.523-1.691-0.883c-0.205-0.14-0.606-0.372-0.477-0.612
					c0.028-0.052,0.081-0.105,0.167-0.157c0.15-0.091,0.321-0.091,0.49-0.106c1.198-0.108,2.374,0.141,3.559,0.293
					c1.209,0.155,2.42,0.287,3.634,0.397c1.903,0.172,3.851,0.368,5.755,0.291c2.804-0.113,5.603-0.369,8.381-0.766
					c5.465-0.781,10.819-2.168,16.261-3.078c0.185-0.031,1.923-0.557,1.97-0.455C330.165,182.805,326.001,183.615,325.091,183.85z"
					/>
				<path style="fill:#FE6D34;" d="M321.555,230.792c-2.336-0.986-4.923-1.254-7.426-1.48c-1.138-0.103-1.332,0.151-1.291,1.248
					c0.111,2.98-1.319,5.773-3.521,7.735c-2.08,1.853-4.945,2.646-7.486,3.649c-0.321,0.127-0.651,0.213-0.984,0.203
					c3.013,1.589,5.766,4.15,5.43,7.852c-1.875-1.421-3.807-2.825-6.073-3.548c0.576,4.408,1.948,8.662,2.492,13.079
					c0,0,2.208-0.33,5.089-0.99c0.002,0.03,0.007,0.059,0.009,0.089c3.553-0.871,7.278-1.728,10.383-3.752
					c3.354-2.187,4.818-5.869,5.513-9.688c0.536-2.947,0.295-6.253,1.094-9.096c1.037,0.991,0.96,2.909,0.925,4.23
					c-0.071,2.695-1.408,8.801-2.711,12.792c0.17-0.522,1.462-1.353,1.838-1.883c0.525-0.741,0.948-1.583,1.349-2.396
					c0.832-1.689,1.589-3.562,1.645-5.469c0.014-0.487,0.019-0.974,0.01-1.46C327.754,237.238,326.125,232.721,321.555,230.792z"/>
				<path style="fill:#FFFFFF;" d="M307.357,263.816c-1.526,0.146-3.052,0.292-4.571,0.446c0.26,1.94,0.3,3.945,0.901,5.821
					c1.161,0.942,2.825,1.039,4.213,1.559C307.674,269.036,307.479,266.43,307.357,263.816z"/>
				<path style="fill:#FFFFFF;" d="M325.54,220.867c-2.543-0.553-5.14-0.38-7.718-0.298c-2.551,0.081-5.067,0.303-7.601,0.592
					c-2.351,0.268-4.546,0.498-6.715,1.56c4.127-0.428,8.305-0.569,12.42-0.036c2.771,0.359,5.513,1.029,8.099,2.096
					c1.826,0.753,5.085,1.858,5.732,3.967c0.653,2.127,0.9,4.42,0.769,6.638c1.938,0,3.258-1.714,3.278-3.481
					C334.151,226.275,331.111,222.078,325.54,220.867z"/>
				<path style="fill:#FE6D34;" d="M378.546,120.577c-8.581-6.909-18.81-11.552-29.453-14.231l-0.016-0.195
					c-12.121-3.085-24.623-4.806-37.141-4.489c-14.353,0.3-28.844,1.396-42.67,5.504c-19.89,5.87-39.122,14.735-55.772,27.196
					c5.585,3.653,11.593,6.722,18.063,8.459c6.007,2.07,12.413,3.726,18.802,2.833c6.884-1.096,12.551-5.415,18.226-9.149
					c7.12-5.09,14.467-9.864,22.057-14.223l0.057-0.3c7.461-4.335,15.246-8.037,23.04-11.707c7.729-2.955,16.009-4.806,24.314-3.596
					c3.775,0.406,7.51,1.088,11.244,1.786c13.338,2.979,25.475,9.921,35.915,18.615
					C383.417,124.506,380.941,122.541,378.546,120.577z"/>
				<path style="fill:#FE6D34;" d="M298.892,234.652c0.42,1.025,1.429,1.763,2.563,1.619c1.302-0.166,2.448-0.865,3.381-1.761
					c0.483-0.464,2.258-2.214,2.033-3.209c-0.068-0.301-0.32-0.534-0.846-0.64c-2.158-0.436-4.315-0.655-6.157,0.813
					C298.866,232.271,298.391,233.429,298.892,234.652z"/>
				<path style="fill:#FFFFFF;" d="M182.084,336.588c3.677-9.182,11.284-16.488,20.231-20.547c-5.293,0.3-10.554-0.471-15.782-1.201
					c-6.219,4.863-11.276,11.569-12.811,19.435c-1.867,9.49-2.021,19.874,2.435,28.698c4.311,8.581,10.497,16.22,18.015,22.195
					c-4.197-5.342-8.581-10.667-11.39-16.902C178.187,358.402,178.114,346.671,182.084,336.588z"/>
				<path style="fill:#FFFFFF;" d="M164.07,226.236c-2.054-0.024-3.978,1.859-3.783,3.962c0.122,4.473,2.573,8.622,5.886,11.52
					c0.495-4.36,0.544-8.849-0.593-13.119C165.295,227.722,164.995,226.634,164.07,226.236z"/>
				<path style="fill:#FFFFFF;" d="M325.917,209.926c1.233,1.333,2.344,2.761,3.52,4.142c0.571,0.67,1.166,1.329,1.76,1.982
					c0.458,0.504,1.796,1.428,1.993,2.044c-1.924-6.04-5.058-11.999-9.847-16.245c-2.412-2.138-6.516-3.046-9.589-3.58
					c-1.73-0.301-3.48-0.478-5.233-0.586c-1.195-0.073-4.089-0.674-5.015,0.424c-0.347,0.411-0.258,1.308-0.319,1.83
					c-0.106,0.907-0.16,1.824-0.204,2.735c-0.082,1.718-0.074,3.44,0.039,5.157c0.108,1.652,0.297,3.298,0.55,4.934
					c0.123,0.793,0.261,1.583,0.412,2.37c0.057,0.297,0.615,2.011,0.459,2.198c3.191-3.39,4.095-9.134,5.333-13.445
					c1.75,0.904,3.461,1.884,5.126,2.937c1.444,0.913,2.807,2.235,4.401,2.864c-0.131-1.141-0.969-2.367-1.558-3.343
					c-0.185-0.306-1.608-2.952-1.83-2.927c0.219-0.024,0.674-0.057,0.901-0.081C320.354,204.495,323.434,207.24,325.917,209.926z"/>
				<path style="fill:#FFFFFF;" d="M309.987,324.735c-2.311-3.526-5.539-6.051-8.936-8.457c-2.904-2.057-6.414-3.449-9.547-5.133
					c-6.846-3.68-13.644-8.08-17.505-15.059c-2.131,3.487-5.381,5.99-8.924,7.909c-0.184,2.632-0.281,8.613,2.114,12.582
					c2.302,3.367,5.434,6.147,9.197,7.818c-5.813-0.885-10.716-5.301-12.876-10.676c-0.836-2.655-1.453-5.382-1.534-8.167
					c-7.858,3.028-16.253,4.92-24.712,4.676c-4.969-0.179-9.856,0.861-14.67,1.916c-6.113,1.534-12.429,2.614-18.112,5.464
					c-6.665,3.126-12.665,8.078-16.18,14.629c-4.749,8.954-5.715,19.784-2.736,29.461c2.947,9.791,10.132,17.617,18.234,23.551
					c6.275,4.757,11.601,11.016,13.866,18.68c-0.723-8.281-6.478-14.751-11.642-20.783l0.073-0.065
					c-7.104-8.305-14.654-17.43-15.652-28.763c1.372,6.162,3.921,12.064,7.688,17.154c4.343,6.211,10.432,10.83,16.017,15.855
					c4.116,3.686,7.282,8.362,9.271,13.517c-0.909-10.14-4.66-20.085-11.057-28.049c-2.874-3.418-5.577-7.03-7.436-11.114
					c-3.694-7.582-3.458-16.586-0.982-24.485c-1.234,7.177-0.495,14.881,2.419,21.595c2.817,7.948,9.442,13.606,15.051,19.606
					c5.951,6.178,11.634,13.46,12.6,22.277c1.344,7.761-1.764,15.556-6.577,21.549c2.143-1.417,8.916-6.462,11.456-15.077
					c0.07-0.278,0.144-0.555,0.202-0.838c2.013-9.101,1.136-18.591-0.771-27.635c1.111,2.304,1.882,4.746,2.621,7.196l-0.023,0.062
					c1.471,5.167,1.862,10.576,1.202,15.861c-0.001,0.051-0.012,0.103-0.019,0.155c-0.181,1.409-0.434,2.81-0.766,4.194
					c-0.489,2.158-1.14,4.278-1.956,6.327c-3.469,8.717-10.052,16.069-21.291,18.71c-1.52,1.115-3.055,2.209-4.513,3.375
					c0.805-0.643,3.813-0.521,4.889-0.715c1.703-0.307,3.396-0.675,5.07-1.114c3.335-0.875,6.604-2.032,9.703-3.55
					c4.986-2.443,9.109-6.099,12.873-10.105c1.604-1.672,3.149-3.415,4.598-5.235c0.155-0.192,0.306-0.388,0.458-0.582
					c0.283-0.364,0.561-0.732,0.836-1.102c0.408-0.547,0.803-1.101,1.191-1.663c0.174-0.253,0.35-0.505,0.521-0.761
					c0.243-0.366,0.481-0.735,0.715-1.107c0.212-0.337,0.417-0.677,0.621-1.018c0.25-0.418,0.495-0.839,0.731-1.264
					c0.277-0.496,0.545-0.996,0.802-1.502c0.127-0.249,0.251-0.499,0.373-0.75c0.319-0.656,0.627-1.319,0.912-1.992
					c0.024-0.057,0.05-0.114,0.074-0.172c0.303-0.724,0.578-1.46,0.838-2.203c0.067-0.19,0.132-0.381,0.195-0.572
					c0.255-0.767,0.496-1.54,0.702-2.326c2.866-9.896,2.46-20.864-2.151-30.176c-3.994-8.419-11.106-15.173-13.622-24.314
					c-2.785-9.003-0.552-19.979,7.339-25.727l0.674-0.008c-1.469,2.63-3.71,4.847-4.563,7.802
					c-2.517,7.639-0.584,16.131,3.548,22.845c4.976,8.179,11.765,15.241,15.701,24.049c3.883,8.689,2.025,20.398-1.172,29.037
					c-3.485,9.419-9.787,19.344-17.72,25.669c-5.285,4.213-10.919,7.988-17.073,10.846c10.611-0.26,20.961-3.986,29.851-9.677
					c4.774-3.223,9.718-6.543,13.387-11.016c3.117-3.126,6.056-6.446,8.93-9.799c5.163-6.162,8.792-13.452,11.284-21.067
					c0.276-0.828,0.56-1.648,0.844-2.46c0.268-1.112,0.511-2.233,0.787-3.328c3.052-15.563,0.171-33.001-10.489-45.186
					c3.515,3.255,6.641,6.933,9.344,10.878c2.038,2.971,3.085,6.446,4.595,9.677c0.893,4.465,2.241,8.849,2.622,13.411
					c0.135,1.131,0.23,2.266,0.286,3.404c0.41,8.345-1.223,16.902-4.677,24.509c-1.646,3.624-3.687,7.065-6.016,10.29
					c-2.149,2.975-4.684,6.663-7.647,8.884c10.206-7.652,17.579-18.878,21.031-31.159c3.452-12.28,3.044-25.545-0.674-37.748
					c2.279,5.661,3.823,11.617,4.581,17.673c0.812,6.49,0.717,13.125-0.679,19.514c-3.476,15.913-15.302,27.323-26.845,37.967
					c0.699-0.644,2.127-1.014,2.983-1.462c1.022-0.535,2.029-1.099,3.02-1.69c1.982-1.182,3.898-2.474,5.738-3.867
					c3.681-2.784,7.058-5.97,10.047-9.487c5.475-6.442,9.388-14.122,12.272-22.037c4.238-12.315,3.824-25.751,1.697-38.448
					C315.492,337.749,313.917,330.67,309.987,324.735z"/>
				<path style="fill:#FFFFFF;" d="M151.908,334.891c-0.544-7.558,1.356-14.986,3.58-22.147
					c3.742-11.406,14.264-18.355,20.288-28.333l0.714-0.633c-2.322,5.48-5.764,10.343-9.369,15.027
					c-4.944,6.462-8.646,14.004-9.799,22.114c-1.323,10.497-0.252,22.366,7.063,30.606c1.112,0.999,2.224,1.989,3.361,2.963
					c-1.973-10.732-1.38-21.822,1.08-32.424c0.694-2.405,0.437-4.955,1.022-7.38c0.693-2.872,2.217-5.787,3.786-8.277
					c0.297-0.471,0.61-0.932,0.943-1.379c0.257-0.345,0.77-0.761,0.93-1.149c-1.745,4.23-2.711,8.833-1.989,13.411
					c-0.209-1.323,0.68-3.451,0.999-4.746c0.401-1.633,0.845-3.254,1.273-4.88c1.07-4.065,2.901-8.095,5.6-11.318
					c0.777-0.927,1.449-1.946,2.113-2.956c-2.931,4.741-5.033,9.896-6.267,15.335c3.921-3.288,9.417-4.051,12.965-7.818
					c7.063-7.883,10.773-18.729,9.636-29.291c-0.739-10.343-5.277-19.849-7.087-29.973c-2.021-9.815-1.331-19.906-0.86-29.843
					c-3.288-1.762-6.43-3.767-9.539-5.813c2.476,14.832,4.514,29.778,5.488,44.789c-0.154,0.771-0.455,2.322-0.609,3.101
					c0.43-4.855-1.193-9.588-1.94-14.345c-1.77-11.228-2.094-22.65-4.27-33.813c-1.948-0.666-3.897-1.356-5.837-2.046
					c2.915,10.497,5.366,21.156,6.276,32.035c0.341,6.056,0.057,12.145,0.041,18.185c-0.934,7.42-2.582,14.856-6.243,21.449
					c-3.142,6.34-7.185,12.64-13.233,16.553c6.267-8.695,12.34-17.868,15.1-28.349c2.801-13.16,0.86-26.725-1.616-39.78
					c-0.956-4.711-1.259-9.93-3.01-14.473c0.946,9.415,1.938,25.815-0.444,40.705c-0.007,0.044-0.014,0.084-0.021,0.128
					c-0.092,0.677-0.189,1.354-0.3,2.029c-2.078,11.934-8.581,22.382-14.613,32.66c-5.967,9.174-11.528,18.956-13.387,29.883
					c-2.111,10.822-0.195,22.309,5.033,31.986c4.96,8.816,12.429,16.253,21.124,21.44c-1.526-1.656-3.166-3.199-4.733-4.806
					C157.859,355.609,152.655,345.583,151.908,334.891z"/>
				<path style="fill:#FFFFFF;" d="M308.055,279.589c-1.836-1.505-3.98-2.507-6.133-3.469c-0.566,0.934-1.376,1.846-2.299,2.64
					c0.589,2.803,2.068,5.472,2.125,8.42c-1.425-2.21-2.214-5.135-4.036-7.052c-0.806,0.476-1.623,0.847-2.385,1.037
					c-2.858,0.617-5.772,0.893-8.67,1.177c-3.596,0.13-7.282-0.081-10.603-1.599c1.234,5.553,2.127,11.471,5.813,16.05
					c4.842,6.035,12.739,10.449,20.384,11.665c-1.328-1.771-2.363-4.013-3.39-5.983c-0.568-1.089-1.106-2.194-1.612-3.313
					c-0.424-0.937-0.713-2.306-1.318-3.123c2.501,3.374,5.092,7.733,8.903,9.807c3.491,1.9,6.771,4.205,9.474,7.144
					c-0.192-0.209-0.129-1.247-0.16-1.546c-0.059-0.567-0.118-1.134-0.178-1.7c-0.275-2.584-0.41-5.166-0.908-7.723
					c-0.524-2.688-1.265-5.407-1.976-8.057c-0.723-2.694-1.654-5.349-3.037-7.78c-1.762-3.109-4.489-5.472-6.625-8.305
					c5.878,4.465,9.718,11.065,11.974,17.998c3.004,9.417,8.037,18.729,16.415,24.387c-1.94-2.931-4.286-5.61-5.756-8.833
					c-3.393-6.698-3.669-14.499-7.266-21.107C314.55,286.263,311.668,282.512,308.055,279.589z"/>
			</g>
			<path style="fill:#E3CEBD;" d="M260.697,256.344c7-4,15.941,5.546,18,11c2.059,5.454,14.595,6.186,20.461-1.019
				c0,0,2.404,8.6-3.791,11.651c-6.195,3.051-17.477,3.097-21.175-0.671c-3.699-3.768-2.364-8.669-6.268-9.039
				c-3.904-0.37-9.822,2.573-11.579-0.424c-1.757-2.997-1.572-9.488,0.185-10.635C258.286,256.061,260.697,256.344,260.697,256.344z
				"/>
			<path style="fill:#E3CEBD;" d="M276.864,235.779c5.953-1.639,12.855-0.69,15.616,1.984c2.761,2.675,5.781-6.683-0.431-7.871
				c-6.212-1.188-9.318-2.087-11.734-0.602S276.864,235.779,276.864,235.779z"/>
			<path style="fill:#E3CEBD;" d="M308.484,322.719c0,0-4.656-3.694-22.465-8.652s-28.029,3.238-31.672,9.916
				c-3.643,6.678,1.378,21.538,12.289,31.576c14.36,13.211,13.067,37.336,7.611,48.823c-5.457,11.488-11.632,18.524-9.908,23.263
				c0,0-18.524,13.929-32.884,12.637s1.867-4.882,7.324-9.19s19.386-13.785,23.263-31.017c3.877-17.232,4.021-29.43-5.888-40.638
				s-16.662-30.459-4.228-42.844c12.433-12.385,10.74-14.463,10.74-14.463l12.159-9.08c0,0,5.464,7.157,10.773,10.927
				s19.469,9.157,23.317,12.62S308.484,322.719,308.484,322.719z"/>
			<path style="fill:#E3CEBD;" d="M251.398,317.473c-14.215-2.903-28.242-2.862-37.842,3.925c0,0-3.807,20.359,5.628,32.608
				c9.435,12.249,23.235,20.707,22.002,41.543c0,0,0.228,16.46-7.021,24.288c-7.25,7.828-13.685,5.918-13.685,5.918
				s-6.415-27.794-20.438-35.44s-21.344-16.756-26.224-27.33c-4.88-10.574-3.469-27.656-1.328-36.115
				c2.141-8.459,12.067-14.804,14.913-15.292c2.846-0.488,7.889-0.325,16.836,0c8.947,0.325,21.985-3.22,33.571-3.882
				s25.38-4.635,27.697-5.848c2.317-1.214-1.545,0.552-1.766,2.979c-0.221,2.428-1.434,8.215-3.531,10.011
				S251.398,317.473,251.398,317.473z"/>
			<path style="fill:#E3CEBD;" d="M292.658,397.617c13.362-4.385,27.769-23.802,27.56-45.725
				c-0.209-21.923,6.89,20.044,3.549,27.351s-7.514,25.263-15.867,31.945c-8.353,6.681-16.287,12.945-21.715,13.362
				s-10.452,5.535-10.133,1.41C276.373,421.836,292.658,397.617,292.658,397.617z"/>
			<path style="fill:#E3CEBD;" d="M264.253,313.275c4.874,8.758,7.434,9.444,12.132,11.119c0,0-5.407-2.818-6.066-13.861
				C269.66,299.49,264.253,313.275,264.253,313.275z"/>
			<path style="fill:#E3CEBD;" d="M161.919,301.455c-14.034,17.845-18.966,29.243-11.32,51.205s21.148,20.172,21.148,20.172
				s2.424-4.555-1.228-9.761c-3.652-5.206-13.087-11.55-14.877-22.45c-1.789-10.9-0.488-24.239,1.301-28.632
				C158.734,307.598,161.919,301.455,161.919,301.455z"/>
			<path style="fill:#E3CEBD;" d="M171.465,234.948c7.381,23.445-4.96,51.89-4.96,51.89s11.956-14.966,13.074-29.63
				c0,0,3.724,4.873,2.731,14.844c0,0,6.952-4.74,8.442-15.944c0,0,3.352,14.866,0.745,25.667
				c-2.607,10.801-25.45,24.084-27.933,35.382c-2.483,11.297-2.31,25.628,4.183,37.333c0,0,5.252-25.956,7.487-33.382
				s19.863-17.979,23.091-23.441c3.228-5.462,4.966-13.904,4.593-23.215s-1.9-15.755-6.207-25.202
				c-4.308-9.447-3.228-39.23-3.228-39.23l-12.29-7.076l-8.939-2.984l-2.235,7.542c0,0,1.402,4.132,1.446,11.085
				C171.509,225.536,171.465,234.948,171.465,234.948z"/>
			<path style="fill:#E3CEBD;" d="M194.493,303.604c11.489-1.026,32.748-11.289,32.748-11.289s-0.806,3.665-2.309,5.645
				c0,0,13.793-1.036,24.765-8.325c0,0-0.17,3.12-2.516,5.026c0,0,11.273,0.733,17.073-5.571c5.799-6.304,1.254-17.448,1.254-17.448
				l2.587,0.41c0,0,4.534,1.465,5.079,8.152c0.545,6.687,1.115,12.991-8.92,19.589c-10.035,6.598-30.081,6.691-33.751,7.917
				c-3.671,1.226-22.178,3.347-28.187,3.799s-16.126,2.652-17.006-0.721S194.493,303.604,194.493,303.604z"/>
			<path style="fill:#E3CEBD;" d="M287.981,280.69c-3.994,7.89,1.656,21.429,13.344,24.351l4.018,5.649l-5.727,0.587
				c0,0-15.239-2.925-19.136-10.62c-3.896-7.695-5.983-17.556-6.136-20.454C274.191,277.306,287.981,280.69,287.981,280.69z"/>
			<path style="fill:#E3CEBD;" d="M298.437,299.529c6.103,5.039,13.115,3.459,16.967,8.298s2.469,8.592,2.469,8.592l-13.592-7.223
				l-4.68-6.852L298.437,299.529z"/>
			<path style="fill:#E3CEBD;" d="M318.115,308.396c4.185,3.182,10.682,6.431,10.682,6.431l4.641,7.889l-5.967-0.729l-7.558-7.226
				L318.115,308.396z"/>
			<path style="fill:#E3CEBD;" d="M115.684,170.63c16.439,3.684,33.714,16.686,37.376,20.798l-14.593,9.904
				c0,0-1.48-6.603-6.345-14.161c-4.865-7.558-7.819-10.86-11.555-12.858S115.684,170.63,115.684,170.63z"/>
			<path style="fill:#E3CEBD;" d="M118.81,168.564c16.969-7.78,30.314-11.331,40.844-3.128c10.53,8.203,18.698,25.957,40.387,22.406
				c0,0-1.931,9.795-5.548,12.978c-3.617,3.183-12.555,3.918-18.555,1.224c-5.999-2.694-13.68-7.836-16.513-9.183
				c-2.832-1.347-3.286-0.66-6.365-6.881c-3.079-6.22-5.283-12.728-9.69-15.351c-4.408-2.623-13.725-3.27-17.913-3.29
				c-4.188-0.021-3.354,0.729-3.354,0.729L118.81,168.564z"/>
			<path style="fill:#E3CEBD;" d="M205.375,143.218c17.002,13.961,26.299,26.125,46.462,21.287s22.237-18.384,39.93-23.499
				c17.693-5.114,27.804-2.539,33.6,4.674c5.795,7.213,2.479-14.627,2.479-14.627s-11.059-9.408-22.394-6.086
				c-11.335,3.322-22.669,8.021-33.313,15.071c-10.643,7.05-16.449,16.449-25.987,13.961c-9.538-2.488-27.979-10.505-33.479-15.205
				s-5.501-4.7-5.501-4.7L205.375,143.218z"/>
			<path style="fill:#E3CEBD;" d="M222.697,228.091c0,0-17.276-3.462-22.656,1.199c0,0,7.196-1.814,11.995,1.103
				c4.798,2.917,6.116,4.046,6.116,4.046s-11.008,3.293-15.618,4.422c0,0,3.401,0.456,7.675-0.619
				c4.274-1.075,14.724-1.545,14.724-1.545l1.687-6.804L222.697,228.091z"/>
			<path style="fill:#FFFFFF;" d="M182.679,88.182c18.271-9.302,33.386-17.773,58.633-17.44
				c25.247,0.332,42.853,3.654,53.982,12.623c11.129,8.969,12.291,15.779,12.291,15.779s-34.744,3.623-43.02,7.973
				c0,0,72.751-9.8,99.493,7.807s29.898,19.749,31.06,18.179s-4.319-9.941-9.302-13.396c-4.983-3.455-13.952-10.431-30.894-14.75
				c-16.942-4.319-24.084-0.511-28.569-6.982c-4.485-6.472-17.629-22.436-27.002-27.243c-9.373-4.807-69.169-15.272-84.284-9.956
				c-15.115,5.315-24.25,12.457-29.233,17.108C180.852,82.535,182.679,88.182,182.679,88.182z"/>
			<path style="fill:#E3CEBD;" d="M199.592,126.466c-6.042,13.312,1.599,56.838,1.599,56.838h4.184c0,0-4.035-20.772-2.407-31.252
				s3.138-21.715,3.138-21.715L199.592,126.466z"/>
			<path style="fill:#E3CEBD;" d="M225.275,202.227c6.011-0.298,12.674-0.497,23.315-4.276s25.21-9.401,31.426,4.276
				c6.216,13.678-8.752,7.459-8.752,7.459l-37.143-1.912l-8.199,2.21l-3.587-3.879L225.275,202.227z"/>
			<path style="fill:#E3CEBD;" d="M302.303,210.426c1.644-5.37,4.278-11.415,13.041-9.643c8.763,1.771,15.853,15.266,15.853,15.266
				s-9.327-4.089-13.138-2.226s-10.496,6.184-13.454,6.653C301.645,220.946,302.303,210.426,302.303,210.426z"/>
			<path style="fill:#E3CEBD;" d="M244.117,265.818c-9.443,1.195-15.578-1.292-17.499-12.219c-1.92-10.927,1.534,3.221,8.749,4.346
				c7.216,1.125,15.802-0.409,17.439,2.045c1.637,2.454,2.557,5.556,0.717,6.101S244.117,265.818,244.117,265.818z"/>
			<path style="fill:#E3CEBD;" d="M302.241,267.797c3.819,0.2,7.052-1.519,7.052-1.519l-1.017-4.971l-7.011,1.004L302.241,267.797z"
				/>
			<path style="fill:#E3CEBD;" d="M200.871,260.298c12.022,9.252,10.102,29.336,10.102,29.336l-10.102,6.451
				c0,0,3.003-20.27,2.458-24.034C202.785,268.287,200.871,260.298,200.871,260.298z"/>
			<path style="fill:#E3CEBD;" d="M162.886,209.853c-5.295-2.719-11.114-0.715-12.783,5.915c-1.669,6.63-1.145,18.65,7.584,22.562
				c8.729,3.911,11,8.36,11.172,7.882c0.172-0.479,1.745-13.406,0.446-18.399c-1.3-4.993-2.12-11.286-3.625-13.611
				C164.175,211.875,162.886,209.853,162.886,209.853z"/>
			<path style="fill:#E3CEBD;" d="M121.695,179.828c-4.391,8.047-4.884,34.526,1.816,40.779s11.623-6.298,13.752-11.931
				c2.129-5.633,1.996-7.229-2.129-14.281s-5.667-15.808-9.287-15.821C122.227,178.562,121.695,179.828,121.695,179.828z"/>
			<path style="fill:#E3CEBD;" d="M135.969,150.626c16.403-14.402,51.029-3.747,63.172,10.126l0.477-26.362
				c0,0-12.05-3.67-22.478-3.658c-10.428,0.012-22.153,2.792-22.153,2.792s-8.76,4.886-1.926,2.378
				c6.834-2.509,25.929-6.113,45.024,1.786l-0.307,10.276c0,0-18.328-8.359-39.033-7.209c-20.705,1.15-26.533,12.27-26.533,12.27
				L135.969,150.626z"/>
			<path style="fill:#E3CEBD;" d="M187.745,172.096c0,0-11.155-4.483-16.394-10.652c0,0,5.07,0.932,10.14,4.142
				C186.561,168.796,187.745,172.096,187.745,172.096z"/>
		</g>
		<g id="Outline">
			<path style="fill:#333333;" d="M400.498,128.744c-4.083-7.331-11-12.526-17.99-16.894c-14.386-8.63-30.988-12.77-47.468-15.084
				c-5.52-9.328-13.493-16.935-22.106-23.405c-14.231-10.57-31.28-17.292-48.888-19.354c-24.485-2.874-49.887,0.779-72.18,11.479
				c-6.714,3.247-13.436,6.746-19.102,11.666c-3.085,2.59-4.359,6.592-5.504,10.31c-1.794,6.722-2.655,13.639-3.523,20.523
				c-9.539,3.596-19.135,7.225-27.732,12.803c-3.272,2.281-7.932,3.718-9.076,7.996c-1.721,5.618-2.306,11.504-3.743,17.186
				c-8.654,1.908-17.219,6.064-22.812,13.127c-3.954,4.895-4.619,12.291-1.202,17.641c2.687,4.14,7.063,6.771,11.512,8.662
				c-2.306,8.167-4.222,16.983-1.713,25.345c2.354,8.045,8.995,14.061,16.245,17.82c0.487,3.669,0.804,7.404,1.965,10.943
				c1.526,4.798,4.749,8.792,7.696,12.794c3.78,5.03,9.166,8.568,14.885,11.035c2.317,1,4.597,1.981,6.622,3.505
				c0.559,0.421-3.633,9.342-4.068,10.305c-4.109,9.096-11.399,16.81-14.825,26.141c-3.635,9.9-4.075,20.903-2.294,31.234
				c1.871,10.85,6.406,21.101,12.755,30.067c11.144,15.74,27.341,25.91,40.608,34.168c-0.606-1.809-1.167-3.354-1.607-4.336
				c-1.987-4.432-3.082-6.639-3.082-6.639c13.743,11.854,26.428,16.943,27.635,31.756c2.077,15.012-24.104,23.833-24.104,23.833
				s47.175,10.464,85.94-5.804c0.004-0.066,0.027-0.142,0.021-0.203c0.108,1.176,0.055,5.918-0.558,9.572
				c8.578-4.882,26.425-16.65,41.991-37.343c21.398-28.447,16.365-59.673,12.84-75.401c0.13,0.255,0.559,0.458,1.115,0.62
				c12.425,6.485,26.851-0.62,26.851-0.62c-19.278-7.672-25.954-20.598-27.717-29.483c-1.762-8.885-3.855-26.276-16.559-31.031
				c-0.105-3.54-0.146-7.079-0.495-10.602c4.968-1.469,10.375-2.419,14.564-5.667c4.311-4.392,5.983-10.822,5.878-16.845
				c3.88-0.796,8.264-2.752,9.393-6.925c1.063-3.913-1.559-7.493-4.059-10.213c3.069-2.647,3.523-6.901,4.433-10.602
				c3.97-0.219,8.289-0.349,11.617-2.809c3.897-2.817,5.009-8.329,3.54-12.738c-0.909-2.598-3.004-4.473-4.83-6.422
				c-2.143-2.208-3.483-5.017-4.895-7.712c15.051-5.374,28.999-13.395,42.085-22.496c3.937-3.004,8.078-5.926,11.041-9.969
				C403.989,144.331,404.046,135.49,400.498,128.744z M222.754,72.818c0.396-0.323,0.8-0.636,1.212-0.938
				c1.849-1.345,3.74-2.727,6.056-3.09c5.431-1.007,10.968-1.34,16.48-1.616c18.112-0.479,36.735,3.377,52.079,13.338
				c0.226,0.156,0.452,0.313,0.678,0.47c2.777,1.932,5.561,4,8.124,6.257c2.541,2.238,5.332,4.774,7.044,7.732
				c0.149,0.258,0.986,2.059,1.055,2.061c-4.099-0.113-8.153-0.188-12.252-0.006c-8.422,0.374-16.819,1.319-25.111,2.844
				c-8.288,1.524-16.472,3.628-24.458,6.321c-7.985,2.693-15.772,5.975-23.257,9.847c-6.917,3.264-13.217,7.68-18.899,12.778
				c-0.966-10.481-4.782-20.677-3.621-31.32c0.203-1.865,1.111-3.896,1.785-5.634c0.722-1.861,1.562-3.676,2.504-5.436
				C214.849,81.427,218.309,76.449,222.754,72.818z M179.713,99.258c2.078-8.297,8.581-14.556,15.741-18.769
				c5.432-3.237,11.209-5.999,17.218-8.044c-2.028,3.017-4.963,7.723-7.227,12.755c-1.352,2.765-2.444,5.645-3.059,8.692
				c-1.234,5.342-0.552,10.838-0.812,16.253c-0.008,1.997-2.492,2.111-3.889,2.744c-6.673,1.559-12.867,4.538-19.289,6.819
				C178.309,112.897,177.099,105.761,179.713,99.258z M136.264,208.855c-4.156,1.348-6.787-2.931-9.758-4.985
				c1.648,3.929,2.825,8.086,5.301,11.625c-2.979-2.086-5.804-4.717-7.095-8.199c-0.99-2.582-1.039-5.366-1.202-8.078
				c0.528-5.317,1.762-10.562,3.791-15.514c2.963,4.985,5.391,10.302,7.834,15.563C136.662,202.238,136.776,205.607,136.264,208.855
				z M128.869,178.655c-1.751-1.934-3.73-3.706-5.906-5.111c0,0-2.884-2.178-6.493-2.805l0.034-0.032
				c-0.255-0.025-0.508-0.047-0.763-0.071c-0.019-0.002-0.037-0.006-0.057-0.005c-1.407-0.136-2.813-0.272-4.213-0.394
				c2.882-4.14,6.552-7.818,11.065-10.156c5.439-2.996,11.69-5.244,15.465-10.473c3.726-5.098,7.899-10.172,13.663-13.046
				c7.891-3.897,16.756-5.366,25.475-5.829c-9.718-0.146-19.971-0.39-28.958,3.872c-3.385,1.559-6.007,4.262-9.036,6.357
				c4.587-8.232,13.484-13.484,22.577-15.181c13.143-2.086,26.977-0.138,38.984,5.626c1.015,0.487,2.151,0.974,2.622,2.103
				c-2.801,14.727-2.5,29.851-1.258,44.74c0.087,1.042,0.449,1.932,0.366,3.007c-0.006,0.075-0.014,0.153-0.056,0.215
				c-0.056,0.082-0.159,0.117-0.254,0.146c-6.139,1.866-13.028,1.107-18.614-2.049c-0.789-0.446-1.429-1.012-2.198-1.496
				c1.116,3.069,5.135,5.235,7.861,6.639c3.165,1.629,6.524,3.008,9.21,5.344c0.663,0.576-3.574,2.279-4.219,2.513
				c-1.956,0.71-4.01,1.157-6.085,1.317c-1.987,0.153-3.998,0.043-5.95-0.365c-1.602-0.335-4.36-0.905-5.553-2.12
				c3.97,4.043,9.06,6.714,14.645,7.704c-2.744,1.153-12.224,1.783-17.203-2.5c-2.793-2.419-4.887-5.569-7.29-8.378
				c0,0,1.019,3.61,2.472,6.777c-2.969-1.173-5.813-2.655-8.536-4.309c-4.368-2.703-7.266-7.104-9.945-11.366
				c6.397,2.192,12.868,4.148,19.11,6.763c-3.125-2.435-6.616-4.368-9.693-6.884c-5.934-4.814-12.088-9.75-19.484-12.072
				c-0.938-0.313-1.89-0.561-2.849-0.781c-1.921-0.442-3.872-0.712-5.838-0.827c-3.431,0.077-7.436,1.066-13.16,3.037
				c4.278-0.244,8.8-0.844,12.9,0.771c8.502,3.884,15.49,10.684,20.088,18.786c1.006,1.95,0.781,3.253-0.902,3.635
				c-3.879,0.97-7.63,2.586-10.207,5.798C137.141,191.027,133.634,184.403,128.869,178.655z M233.117,259.918
				c1.825,0.799,3.668,1.599,5.632,1.998c4.148,0.804,8.394,0.682,12.583,0.252c0.024,0.787,0.041,1.567,0.065,2.354
				c-2.297,0.049-4.603,0.106-6.901,0.195c-1.551,0.17-3.093,0.333-4.644,0.52c-3.945,0.925-7.583,2.76-10.927,5.025
				c-8.678,5.951-15.944,13.598-23.494,20.84c0.893-6.381,1.088-12.859,0.276-19.257c8.329-3.962,16.472-9.847,19.735-18.843
				c1.202,2.338,2.866,4.4,4.887,6.081c-2.127,2.614-3.807,5.545-5.415,8.492C226.258,267.541,231.621,261.603,233.117,259.918z
				 M283.01,200.266c-0.544-3.702-2.281-7.144-4.952-9.766c-2.955-1.956-6.446-2.914-9.977-2.947c-5.959,0-11.942,0.146-17.844,1.08
				c5.504-3.458,11.422-6.681,18.031-7.168c5.488-0.276,12.226-0.536,15.985,4.262c3.45,4.944,2.5,11.374,2.947,17.065
				c0.073,3.718-0.674,8.191-4.814,9.409C282.84,208.238,283.286,204.26,283.01,200.266z M242.784,296.711
				c-3.085,2.525-6.389,5.025-10.302,6.097c-5.894,1.892-12.137,2.265-18.014,4.189c2.208-2.955,4.644-5.748,6.649-8.857
				c-5.179,3.856-10.432,7.834-16.699,9.75c-4.83,1.843-10.083,1.591-15.149,1.323c1.892-1.559,4.278-2.314,6.479-3.337
				c5.439-3.093,10.416-6.966,14.605-11.634c6.714-7.404,13.614-14.873,22.179-20.174c6.698-4.23,15.011-4.733,22.69-3.807
				c0.885,0.063,1.726,0.297,2.535,0.622c-3.474,1.998-10.767,2.869-10.767,2.869s3.731,0.67,8.33,0
				c2.768-0.341,5.334-1.705,8.199-1.396c-1.591,2.249-4.059,3.531-6.227,5.131c3.88-0.552,7.177-2.752,10.27-5.001
				c0.203,0.568,0.601,1.713,0.796,2.281c3.312,4.506,5.033,10.692,2.638,16.001c-2.46,5.058-7.51,8.273-12.632,10.188
				c-7.363,2.939-15.343,3.613-23.194,4.051c2.947-1.932,5.813-4.108,7.647-7.185L242.784,296.711z M267.983,264.449
				c-3.055-1.483-6.147,0.621-8.914,1.781c-2.001,0.839-2.131-2.016-2.011-3.279c0.287-3.026,2.604-4.349,4.886-5.845
				c2.55-1.672,5.115-3.381,7.217-5.614c5.683-5.545,8.873-13.005,11.138-20.482c3.296-1.908,7.558-1.153,10.773,0.617
				c0.487,3.605,0.227,7.436,1.916,10.773c1.161,2.346,2.176,4.774,2.711,7.347c1.461,5.236,2.801,10.635,2.736,16.107
				c0,3.32-1.859,6.251-4.311,8.337c-3.962,2.858-9.174,3.588-13.923,2.841c-3.069-0.471-6.154-2.168-7.453-5.106
				C271.531,269.247,271.028,265.74,267.983,264.449z M238.319,220.488c0.024-0.601,0.073-1.818,0.097-2.419
				c6.473-2.844,13.668-3.344,20.615-2.397c3.46,0.472,6.868,1.285,10.201,2.319c1.645,0.511,4.667,0.766,5.643,2.415
				c0.437,0.737,0.329,1.67,0.582,2.489c0.23,0.745,0.759,1.398,0.83,2.175c0.028,0.307-2.365-0.853-2.55-0.988
				c-0.881-0.642-1.61-1.47-2.491-2.115c-2.029-1.483-4.958-1.978-7.37-2.511c-2.831-0.625-5.716-1.003-8.612-1.132
				c-2.896-0.129-5.804-0.01-8.679,0.361C245.769,218.791,238.347,219.791,238.319,220.488z M242.289,229.589
				c-2.59,1.047-5.439,1.291-8.167,1.802c1.38-2.89,4.01-5.009,6.754-6.527C243.629,224.182,244.554,228.452,242.289,229.589z
				 M258.006,191.482c5.358-0.755,11.341-2.046,16.302,0.82c4.96,3.182,5.926,9.823,4.903,15.197
				c-1.575-6.072-7.225-10.602-13.484-10.862c-10.4-0.471-20.109,3.889-29.136,8.524c1.396-2.906,3.775-5.115,5.707-7.639
				c-5.48,2.322-10.278,6.349-16.228,7.485c-0.853-5.658,4.067-10.667,9.506-11.163
				C243.044,192.992,250.594,192.878,258.006,191.482z M234.613,235.313c3.357,0.203,6.366,0.275,9.386-1.459
				c1.502-0.863,2.862-2.04,4.16-3.488c0.404-0.451,0.793-0.923,1.079-1.457c0.297-0.554,0.478-1.161,0.657-1.764
				c0.146-0.49,0.291-0.981,0.437-1.471c0.042-0.14,0.091-0.291,0.213-0.372c0.117-0.077,0.268-0.068,0.408-0.056
				c5.495,0.478,10.931,1.392,16.414,1.94c2.524,0.252,4.393,2.31,5.267,4.567c1.086,2.802,0.406,5.287-0.923,7.878
				c-2.721,5.304-7.249,9.477-12.228,12.642c-1.351,0.859-2.764,1.584-4.156,2.368c-5.504,3.101-12.169,2.996-18.185,1.754
				c-1.632-0.244-2.89-1.339-4.14-2.314c-1.927-2.804-2.666-6.243-2.469-9.61c0.097-1.662,0.417-3.31,0.92-4.895
				c0.327-1.03,0.992-3.811,2.141-4.195C233.919,235.273,234.271,235.293,234.613,235.313z M205.245,270.034
				c-1.396-6.105-3.491-11.991-5.334-17.958c3.182,1.713,6.811,3.588,10.505,2.371c3.694-0.796,6.219-3.742,8.557-6.47
				c2.013-2.5,3.897-5.098,5.959-7.558c-0.406,3.41-0.511,6.86-1.234,10.221C221.011,259.586,212.877,265.399,205.245,270.034z
				 M215.841,246.541c-3.63,4.44-10.653,7.911-15.166,2.409c-1.981-2.403-2.906-5.455-3.572-8.443l-0.162-0.097
				c-0.341-1.599-0.649-3.215-0.917-4.822l-0.138-0.065c-1.047-7.404-1.607-14.889-1.315-22.366
				c0.723,0.479,1.453,0.974,2.168,1.478c3.273,2.306,7.144,3.979,10.52,6.191c5.846,3.83,11.765,7.956,18.018,11.116
				C223.467,234.938,218.324,243.369,215.841,246.541z M152.736,249.876c-3.791-2.249-6.998-5.602-8.816-9.636
				c-3.02-5.017-4.165-10.862-5.082-16.561c-1.202-7.826,0.52-16.196,5.196-22.634c2.833-3.913,7.842-6.405,12.689-5.504
				c3.471,1.11,6.608,3.069,9.399,5.411c0.499,3.14,1.401,8.275,2.738,13.838c-1.762-2.168-3.288-4.603-5.423-6.478
				c-0.552-0.325-1.08-0.666-1.591-1.031c-1.94-1.193-4.254-2.444-6.584-1.607c-3.239,1.258-5.431,4.335-6.503,7.542
				c-1.062,3.178-1.376,6.712-1.058,10.036c0.317,3.311,1.318,6.803,3.25,9.552c0.401,0.571,0.976,1.033,1.569,1.392
				c0.065,0.039,0.132,0.078,0.207,0.086c0.303,0.035,0.253-0.271,0.089-0.404c-0.595-0.482-0.891-1.203-1.172-1.892
				c-0.328-0.803-0.623-1.601-0.829-2.445c-0.405-1.658-0.561-3.366-0.65-5.066c-0.097-4.449,0.544-9.377,3.702-12.762
				c1.275-1.51,3.572-1.705,5.196-0.633c2.614,1.656,4.108,4.506,5.277,7.274c-2.241,0.317-4.571,0.852-6.194,2.549
				c-0.154,0.161-0.323,0.308-0.475,0.472c-2.424,2.605-3.152,6.378-2.873,9.824c0.076,0.94,0.215,1.873,0.381,2.8
				c0.156,0.87,0.266,1.775,0.64,2.579c0.72,1.55,1.385,3.081,2.294,4.537c1.787,2.861,4.107,5.409,6.893,7.324
				c-0.049,2.509-0.325,5.001-0.585,7.501C160.822,253.343,156.446,252.247,152.736,249.876z M166.172,241.718
				c-3.312-2.898-5.764-7.047-5.886-11.52c-0.195-2.103,1.729-3.986,3.783-3.962c0.925,0.398,1.226,1.486,1.51,2.362
				C166.716,232.869,166.667,237.358,166.172,241.718z M148.767,346.687c-5.228-9.677-7.144-21.164-5.033-31.986
				c1.859-10.927,7.42-20.71,13.387-29.883c6.032-10.278,12.535-20.726,14.613-32.66c0.111-0.675,0.208-1.352,0.3-2.029
				c0.007-0.044,0.014-0.084,0.021-0.128c2.382-14.89,1.391-31.291,0.444-40.705c1.751,4.544,2.054,9.762,3.01,14.473
				c2.476,13.054,4.417,26.62,1.616,39.78c-2.76,10.481-8.833,19.654-15.1,28.349c6.048-3.913,10.091-10.213,13.233-16.553
				c3.661-6.592,5.309-14.028,6.243-21.449c0.016-6.04,0.3-12.129-0.041-18.185c-0.909-10.878-3.361-21.538-6.276-32.035
				c1.94,0.69,3.889,1.38,5.837,2.046c2.176,11.163,2.5,22.585,4.27,33.813c0.341,2.169,0.857,4.304,1.281,6.457
				c0.344,1.743,0.569,3.503,0.815,5.262c0.001,0.006,0.217-0.005,0.243-0.021c0.094-0.061,0.113-0.174,0.105-0.279
				c-0.276-3.479-0.449-6.971-0.758-10.451c-0.276-3.119-0.597-6.234-0.969-9.343c-0.863-7.228-1.91-14.432-3.072-21.618
				c-0.192-1.185-0.386-2.369-0.584-3.553c3.109,2.046,6.251,4.051,9.539,5.813c-0.471,9.937-1.161,20.028,0.86,29.843
				c1.81,10.123,6.349,19.63,7.087,29.973c1.136,10.562-2.573,21.408-9.636,29.291c-3.548,3.767-9.044,4.53-12.965,7.818
				c1.234-5.439,3.337-10.594,6.267-15.335c-0.664,1.01-1.336,2.029-2.113,2.956c-2.7,3.222-4.53,7.253-5.6,11.318
				c-0.428,1.626-0.872,3.247-1.273,4.88c-0.318,1.296-1.208,3.423-0.999,4.746c-0.723-4.579,0.244-9.182,1.989-13.411
				c-0.16,0.389-0.673,0.805-0.93,1.149c-0.333,0.446-0.646,0.907-0.943,1.379c-1.569,2.491-3.093,5.405-3.786,8.277
				c-0.585,2.424-0.328,4.975-1.022,7.38c-2.46,10.602-3.052,21.692-1.08,32.424c-1.136-0.974-2.249-1.965-3.361-2.963
				c-7.315-8.24-8.386-20.109-7.063-30.606c1.153-8.11,4.855-15.652,9.799-22.114c3.605-4.684,7.047-9.547,9.369-15.027
				l-0.714,0.633c-6.024,9.977-16.545,16.927-20.288,28.333c-2.224,7.16-4.124,14.589-3.58,22.147
				c0.747,10.692,5.951,20.718,13.249,28.43c1.567,1.607,3.207,3.15,4.733,4.806C161.196,362.94,153.727,355.503,148.767,346.687z
				 M176.158,362.972c-4.457-8.825-4.303-19.208-2.435-28.698c1.534-7.867,6.592-14.572,12.811-19.435
				c5.228,0.731,10.489,1.502,15.782,1.201c-8.946,4.059-16.553,11.366-20.231,20.547c-3.97,10.083-3.897,21.814,0.698,31.677
				c2.809,6.235,7.193,11.56,11.39,16.902C186.654,379.193,180.468,371.553,176.158,362.972z M315.224,383.065
				c-2.884,7.915-6.797,15.594-12.272,22.037c-2.989,3.517-6.366,6.703-10.047,9.487c-1.84,1.392-3.757,2.684-5.738,3.867
				c-0.991,0.591-1.998,1.155-3.02,1.69c-0.856,0.449-2.285,0.818-2.983,1.462c11.542-10.644,23.369-22.054,26.845-37.967
				c1.396-6.39,1.491-13.025,0.679-19.514c-0.758-6.055-2.302-12.012-4.581-17.673c3.718,12.203,4.126,25.467,0.674,37.748
				c-3.452,12.28-10.825,23.506-21.031,31.159c2.962-2.221,5.498-5.909,7.647-8.884c2.33-3.225,4.371-6.666,6.016-10.29
				c3.454-7.607,5.088-16.164,4.677-24.509c-0.056-1.137-0.151-2.273-0.286-3.404c-0.382-4.562-1.729-8.946-2.622-13.411
				c-1.51-3.231-2.557-6.706-4.595-9.677c-2.703-3.945-5.829-7.623-9.344-10.878c10.659,12.186,13.541,29.624,10.489,45.186
				c-0.276,1.096-0.52,2.216-0.787,3.328c-0.284,0.812-0.568,1.632-0.844,2.46c-2.492,7.615-6.121,14.905-11.284,21.067
				c-2.874,3.353-5.813,6.673-8.93,9.799c-3.67,4.473-8.614,7.794-13.387,11.016c-8.89,5.691-19.24,9.417-29.851,9.677
				c6.154-2.858,11.788-6.633,17.073-10.846c7.933-6.325,14.235-16.249,17.72-25.669c3.196-8.639,5.054-20.348,1.172-29.037
				c-3.936-8.808-10.725-15.87-15.701-24.049c-4.132-6.714-6.064-15.206-3.548-22.845c0.852-2.955,3.093-5.171,4.563-7.802
				l-0.674,0.008c-7.891,5.748-10.124,16.724-7.339,25.727c2.517,9.141,9.628,15.896,13.622,24.314
				c4.611,9.312,5.017,20.279,2.151,30.176c-0.206,0.787-0.447,1.56-0.702,2.326c-0.064,0.191-0.129,0.382-0.195,0.572
				c-0.26,0.743-0.535,1.479-0.838,2.203c-0.024,0.058-0.05,0.114-0.074,0.172c-0.285,0.673-0.592,1.335-0.912,1.992
				c-0.122,0.251-0.246,0.501-0.373,0.75c-0.258,0.506-0.526,1.006-0.802,1.502c-0.237,0.426-0.482,0.846-0.731,1.264
				c-0.204,0.341-0.409,0.682-0.621,1.018c-0.234,0.372-0.472,0.741-0.715,1.107c-0.17,0.256-0.346,0.508-0.521,0.761
				c-0.388,0.562-0.783,1.116-1.191,1.663c-0.275,0.37-0.553,0.738-0.836,1.102c-0.152,0.195-0.303,0.39-0.458,0.582
				c-1.449,1.819-2.994,3.563-4.598,5.235c-3.764,4.006-7.888,7.662-12.873,10.105c-2.772,1.358-5.653,2.377-8.613,3.246
				c-3.366,0.988-6.726,1.639-10.22,1.398c0.226,0.016,0.829-0.505,1.038-0.627c0.412-0.242,0.828-0.477,1.247-0.706
				c0.806-0.44,1.625-0.857,2.456-1.25c1.537-0.726,3.138-1.283,4.688-1.973c2.709-1.206,5.228-2.823,7.432-4.808
				c3.631-3.271,6.313-7.461,8.113-11.984c0.816-2.05,1.466-4.169,1.956-6.327c0.332-1.384,0.584-2.784,0.766-4.194
				c0.007-0.052,0.018-0.104,0.019-0.155c0.659-5.284,0.269-10.694-1.202-15.861l0.023-0.062c-0.738-2.45-1.509-4.892-2.621-7.196
				c1.908,9.044,2.785,18.534,0.771,27.635c-0.059,0.283-0.132,0.56-0.202,0.838c-2.541,8.615-9.314,13.66-11.456,15.077
				c4.812-5.993,7.92-13.788,6.577-21.549c-0.966-8.816-6.649-16.099-12.6-22.277c-5.61-5.999-12.234-11.658-15.051-19.606
				c-2.915-6.714-3.653-14.418-2.419-21.595c-2.476,7.899-2.712,16.902,0.982,24.485c1.859,4.083,4.563,7.696,7.436,11.114
				c6.397,7.964,10.148,17.909,11.057,28.049c-1.989-5.155-5.155-9.831-9.271-13.517c-5.585-5.025-11.674-9.645-16.017-15.855
				c-3.767-5.09-6.316-10.992-7.688-17.154c0.999,11.333,8.549,20.458,15.652,28.763l-0.073,0.065
				c5.163,6.032,10.919,12.502,11.642,20.783c-2.265-7.664-7.591-13.923-13.866-18.68c-8.102-5.934-15.287-13.76-18.234-23.551
				c-2.979-9.677-2.013-20.507,2.736-29.461c3.515-6.551,9.515-11.504,16.18-14.629c5.683-2.85,11.999-3.929,18.112-5.464
				c4.814-1.055,9.701-2.094,14.67-1.916c8.459,0.244,16.854-1.648,24.712-4.676c0.081,2.785,0.698,5.512,1.534,8.167
				c2.159,5.374,7.063,9.791,12.876,10.676c-3.763-1.671-6.895-4.451-9.197-7.818c-2.395-3.969-2.298-9.95-2.114-12.582
				c3.543-1.919,6.793-4.421,8.924-7.909c3.862,6.979,10.659,11.379,17.505,15.059c3.133,1.684,6.644,3.076,9.547,5.133
				c3.397,2.406,6.624,4.931,8.936,8.457c3.929,5.934,5.504,13.014,6.933,19.882C319.047,357.314,319.461,370.749,315.224,383.065z
				 M316.79,290.322c3.596,6.608,3.872,14.41,7.266,21.107c1.469,3.223,3.816,5.902,5.756,8.833
				c-8.378-5.658-13.411-14.97-16.415-24.387c-2.257-6.933-6.097-13.533-11.974-17.998c2.135,2.833,4.863,5.196,6.625,8.305
				c1.383,2.432,2.314,5.086,3.037,7.78c0.711,2.65,1.451,5.369,1.976,8.057c0.499,2.557,0.633,5.139,0.908,7.723
				c0.06,0.567,0.119,1.133,0.178,1.7c0.031,0.299-0.032,1.337,0.16,1.546c-2.703-2.939-5.983-5.244-9.474-7.144
				c-3.811-2.074-6.402-6.433-8.903-9.807c0.605,0.817,0.894,2.186,1.318,3.123c0.507,1.119,1.044,2.224,1.612,3.313
				c1.027,1.97,2.062,4.212,3.39,5.983c-7.646-1.216-15.542-5.63-20.384-11.665c-3.686-4.579-4.579-10.497-5.813-16.05
				c3.32,1.518,7.006,1.729,10.603,1.599c2.898-0.284,5.813-0.56,8.67-1.177c0.763-0.19,1.58-0.561,2.385-1.037
				c1.822,1.917,2.611,4.843,4.036,7.052c-0.057-2.947-1.536-5.617-2.125-8.42c0.923-0.795,1.734-1.706,2.299-2.64
				c2.154,0.962,4.297,1.965,6.133,3.469C311.668,282.512,314.55,286.263,316.79,290.322z M317.744,206.342
				c0.589,0.976,1.427,2.203,1.558,3.343c-1.594-0.628-2.957-1.951-4.401-2.864c-1.665-1.052-3.376-2.033-5.126-2.937
				c-1.237,4.311-2.142,10.055-5.333,13.445c0.156-0.186-0.402-1.9-0.459-2.198c-0.152-0.788-0.29-1.578-0.412-2.37
				c-0.253-1.636-0.442-3.282-0.55-4.934c-0.113-1.716-0.12-3.439-0.039-5.157c0.043-0.911,0.097-1.828,0.204-2.735
				c0.061-0.522-0.028-1.419,0.319-1.83c0.926-1.097,3.82-0.497,5.015-0.424c1.753,0.107,3.503,0.285,5.233,0.586
				c3.073,0.534,7.177,1.442,9.589,3.58c4.79,4.246,7.923,10.205,9.847,16.245c-0.197-0.617-1.535-1.541-1.993-2.044
				c-0.594-0.653-1.188-1.311-1.76-1.982c-1.176-1.381-2.287-2.809-3.52-4.142c-2.483-2.685-5.563-5.431-9.102-6.591
				c-0.227,0.024-0.682,0.057-0.901,0.081C316.136,203.391,317.559,206.036,317.744,206.342z M306.023,230.66
				c0.526,0.106,0.778,0.339,0.846,0.64c0.225,0.995-1.55,2.745-2.033,3.209c-0.933,0.896-2.079,1.595-3.381,1.761
				c-1.134,0.145-2.142-0.593-2.563-1.619c-0.501-1.222-0.026-2.381,0.974-3.178C301.708,230.005,303.865,230.224,306.023,230.66z
				 M302.786,264.262c1.518-0.154,3.044-0.3,4.571-0.446c0.122,2.614,0.317,5.22,0.544,7.826c-1.388-0.52-3.052-0.617-4.213-1.559
				C303.087,268.208,303.046,266.202,302.786,264.262z M327.831,243.366c-0.056,1.907-0.813,3.78-1.645,5.469
				c-0.4,0.813-0.824,1.655-1.349,2.396c-0.375,0.53-1.667,1.361-1.838,1.883c1.303-3.991,2.64-10.097,2.711-12.792
				c0.035-1.321,0.112-3.239-0.925-4.23c-0.799,2.843-0.558,6.149-1.094,9.096c-0.695,3.82-2.159,7.501-5.513,9.688
				c-3.105,2.025-6.83,2.882-10.383,3.752c-0.002-0.03-0.007-0.059-0.009-0.089c-2.88,0.661-5.089,0.99-5.089,0.99
				c-0.544-4.416-1.916-8.67-2.492-13.079c2.265,0.723,4.197,2.127,6.073,3.548c0.337-3.702-2.416-6.263-5.43-7.852
				c0.333,0.009,0.663-0.077,0.984-0.203c2.54-1.003,5.406-1.797,7.486-3.649c2.202-1.961,3.632-4.755,3.521-7.735
				c-0.041-1.096,0.152-1.351,1.291-1.248c2.503,0.227,5.089,0.494,7.426,1.48c4.57,1.93,6.199,6.446,6.286,11.114
				C327.85,242.392,327.845,242.879,327.831,243.366z M333.804,231.905c-0.02,1.767-1.339,3.481-3.278,3.481
				c0.131-2.219-0.116-4.511-0.769-6.638c-0.647-2.108-3.906-3.213-5.732-3.967c-2.586-1.067-5.328-1.737-8.099-2.096
				c-4.115-0.533-8.293-0.391-12.42,0.036c2.169-1.062,4.364-1.292,6.715-1.56c2.534-0.289,5.05-0.511,7.601-0.592
				c2.578-0.082,5.175-0.255,7.718,0.298C331.111,222.078,334.151,226.275,333.804,231.905z M332.378,195.005
				c-0.195,1.153-0.398,2.306-0.601,3.466c-2.614-1.364-4.181-3.954-6.43-5.756c0.3,1.421,0.666,2.833,1.039,4.246
				c-2.322-0.617-4.651-1.201-6.973-1.786c0.171,0.043,1.941-2.001,2.179-2.214c0.906-0.812,1.881-1.548,2.909-2.2
				c2.094-1.327,4.411-2.305,6.827-2.86c0.035-0.008-0.73-0.327-0.867-0.338c-0.443-0.036-0.911,0.073-1.347,0.141
				c-1.01,0.156-2.012,0.366-2.998,0.638c-2.146,0.593-4.247,1.502-6.063,2.805c-1.416,1.016-2.314,2.242-2.938,3.849
				c-4.181,0.268-8.37,0.341-12.551,0.568c-2.086-0.057-2.923,2.184-3.296,3.856c-1.388,5.853-1.599,11.893-2.192,17.86
				c-0.633,3.304-1.266,6.901-3.978,9.198c-1.932-0.471-3.864-0.934-5.797-1.348c-2.671-0.244-5.35-0.325-8.029-0.341
				c-0.382-2.565,1.421-4.465,3.036-6.17c0.999-1.445,2.021-2.866,3.061-4.27c3.361-6.275,2.427-13.72,1.567-20.499
				c-0.544-4.936-2.809-10.473-7.794-12.34c-5.076-1.789-10.313-3.426-15.628-4.321c-3.508-0.591-7.121-0.883-10.68-0.735
				c-2.725,0.136-5.42,0.309-8.113,0.781c-1.922,0.337-3.755,0.945-5.651,1.36c-0.75,0.164-1.372,0.244-2.108,0.541
				c-0.919,0.372-1.837,0.748-2.753,1.128c-3.663,1.521-7.298,3.111-10.903,4.767c-4.011,1.844-8.004,3.782-11.63,6.3
				c-0.084,0.058-0.167,0.116-0.25,0.175c-2.771,1.955-5.32,4.269-7.333,7.009c-0.161,0.219-1.393,1.817-1.211,1.969
				c0.25,0.21,1.601-1.297,1.826-1.504c1.321-1.218,2.701-2.386,4.252-3.305c7.314-4.538,15.222-8.005,22.837-11.999
				c5.813-3.166,12.323-5.058,18.94-5.48c5.488-0.341,10.903,0.844,16.334,1.469c-3.239,0.869-6.592,1.153-9.799,2.119
				c-5.317,1.396-10.286,3.775-15.449,5.602c-4.514,1.64-9.425,1.908-13.809,3.929c-4.83,2.2-8.768,5.837-13.143,8.752
				c-2.736,1.827-5.797,3.109-8.492,5.017c5.098-2.265,10.197-4.546,15.092-7.225c-0.414,0.227-0.838,1.325-1.066,1.736
				c-0.359,0.648-0.686,1.313-0.975,1.995c-0.578,1.365-1.014,2.805-1.176,4.282c-0.154,1.411-0.049,2.864,0.466,4.197
				c0.739,1.912,2.352,2.891,4.099,3.798c1.445,0.751,2.975,1.339,4.551,1.75c0.361,0.094,3.71,0.966,3.835,0.606
				c-1.185,3.426-1.689,7.12-3.434,10.326c-5.788-3.328-11.853-6.202-17.341-10.026c-2.525-1.575-5.147-2.971-7.769-4.359
				l0.024-0.122c-1.948-1.064-3.799-2.281-5.545-3.645c1.104-4.359,2.192-8.922,5.09-12.502c1.713-2.395,3.483-4.741,5.277-7.071
				c-1.405-9.669-2.793-19.386-2.777-29.185c0.008-4.108,0.26-8.216,0.317-12.324c0.203-2.841,0.422-5.675,0.544-8.524
				c8.784,4.944,16.886,11,25.621,16.034c7.155,4.211,18.145,5.259,25.524,1.061c3.371-1.918,6.223-4.639,9.36-6.898
				c8.906-6.413,18.274-12.949,29.185-15.271c6.438-1.413,13.436-0.422,18.981,3.223l0.106,0.211c1.94,1.137,3.88,2.395,5.358,4.132
				c0.787,0.877,1.827,1.624,2.322,2.736c4.554,5.212,6.348,12.121,7.347,18.818c1.364,9.068,0.073,18.485,2.947,27.326
				c1.047,3.556,3.994,5.975,6.219,8.784C337.533,198.334,334.772,196.937,332.378,195.005z M349.296,108.464
				c-3.734-0.698-7.469-1.38-11.244-1.786c-8.305-1.21-16.586,0.641-24.314,3.596c-16.378,6.262-30.615,16.662-45.154,26.23
				c-5.675,3.734-11.341,8.053-18.226,9.149c-6.389,0.893-12.794-0.763-18.802-2.833c-6.47-1.737-12.478-4.806-18.063-8.459
				c16.651-12.462,35.883-21.327,55.772-27.196c13.825-4.108,28.317-5.204,42.67-5.504c12.518-0.317,25.021,1.404,37.141,4.489
				l0.016,0.195c10.643,2.679,20.872,7.323,29.453,14.231c2.395,1.965,4.871,3.929,6.665,6.503
				C374.771,118.385,362.634,111.444,349.296,108.464z"/>
			<path style="fill:#333333;" d="M243.91,169.915c-0.218-0.027-0.44,0.005-0.656,0.047c-1.587,0.309-3.105,1.123-4.565,1.795
				c-0.143,0.066-0.285,0.132-0.427,0.199c-3.404,1.598-6.624,3.465-9.753,5.557c-1.137,0.76-2.262,1.536-3.387,2.313
				c-0.562,0.389-1.124,0.778-1.688,1.165c-0.527,0.362-1.105,0.907-1.693,1.155c4.408-1.859,8.248-4.782,12.583-6.787
				c0.068-0.033,0.137-0.066,0.205-0.099c1.672-0.806,3.333-1.634,5.036-2.372c0.858-0.372,1.727-0.721,2.61-1.031
				c0.451-0.158,0.906-0.307,1.365-0.443c0.375-0.111,0.955-0.138,1.191-0.482c0.04-0.058,0.072-0.122,0.084-0.19
				c0.03-0.17-0.065-0.338-0.184-0.463C244.442,170.08,244.183,169.949,243.91,169.915z"/>
			<path style="fill:#333333;" d="M250.227,255.345c2.429-0.665,4.736-1.745,6.833-3.136c1.051-0.696,2.05-1.471,2.988-2.312
				c2.605-2.334,4.9-5.067,6.711-8.062c0.229-0.378,1.261-1.708,1.156-2.14c-0.122-0.497-1.699,0.015-2.114,0.102
				c-1.621,0.339-3.245,0.843-4.593,1.838c-1.464,1.081-2.465,2.63-3.474,4.114c-1.026,1.51-2.136,2.763-3.472,3.994
				c-2.882,2.654-6.519,4.12-10.354,4.754c-2.052,0.339-4.14,0.451-6.219,0.397c0.034,0.013,0.069,0.025,0.103,0.038
				C241.75,256.381,246.163,256.457,250.227,255.345z"/>
			<path style="fill:#333333;" d="M283.87,165.29c0.988,0.289,1.985,0.544,2.989,0.77c2.794,0.627,5.635,1.021,8.486,1.273
				c1.428,0.126,2.859,0.216,4.291,0.281c1.381,0.063,2.818,0.208,4.198,0.13c7.104-0.398,14.321-0.52,21.237-2.354
				c1.145-0.39,2.939-0.714,2.955-2.249c-3.837,0.695-7.696,1.276-11.575,1.676c-5.671,0.586-11.395,0.79-17.086,0.374
				c-4.746-0.347-9.443-1.15-14.017-2.467c-1.05-0.302-3.29-0.742-3.432,0.925C281.808,164.911,282.914,165.01,283.87,165.29z"/>
			<path style="fill:#333333;" d="M306.886,176.978c5.781-0.137,11.553-0.761,17.219-1.92c1.518-0.292,3.174-0.82,3.751-2.444
				c-12.632,3.101-25.914,3.215-38.651,0.649c-2.514-0.506-5.013-1.088-7.507-1.686c-1.232-0.296-2.464-0.596-3.696-0.894
				c-1.123-0.271-2.325-0.69-3.495-0.523c-0.404,0.058-0.822,0.257-0.992,0.629c-0.157,0.343-0.069,0.745,0.052,1.102
				c0.351,1.04,1.459,1.269,2.405,1.471c1.697,0.362,3.378,0.789,5.076,1.146c2.83,0.596,5.681,1.091,8.547,1.48
				C295.322,176.766,301.108,177.115,306.886,176.978z"/>
			<path style="fill:#333333;" d="M327.299,181.466c-5.442,0.911-10.796,2.298-16.261,3.078c-2.778,0.397-5.577,0.653-8.381,0.766
				c-1.904,0.077-3.852-0.119-5.755-0.291c-1.214-0.11-2.425-0.242-3.634-0.397c-1.185-0.152-2.361-0.401-3.559-0.293
				c-0.169,0.015-0.34,0.015-0.49,0.106c-0.086,0.052-0.139,0.105-0.167,0.157c-0.129,0.24,0.272,0.472,0.477,0.612
				c0.526,0.36,1.09,0.668,1.691,0.883c1.905,0.681,4.084,0.807,6.087,0.984c2.227,0.196,4.466,0.237,6.699,0.157
				c1.653-0.06,3.304-0.186,4.949-0.365c5.433-0.592,10.846-1.654,16.137-3.014c0.91-0.234,5.074-1.045,4.177-2.838
				C329.221,180.91,327.484,181.435,327.299,181.466z"/>
		</g>
	</g>
</g>
</svg>
